<svg id="b33490be-5624-4cdf-a8ad-dc83ee655a0c" data-name="Layer 1" xmlns="http://www.w3.org/2000/svg" viewBox="0 0 1129.05 583.92">
  <g>
    <path d="M933.27,325.24s38.8-40.23,101.36-35.46S1136,254.32,1136,254.32" transform="translate(-8.43 -12.82)" style="fill: none;stroke: #8e8ced;stroke-linecap: round;stroke-linejoin: round;stroke-width: 3px"/>
    <path d="M903.27,295.24s38.8-40.23,101.36-35.46S1106,224.32,1106,224.32" transform="translate(-8.43 -12.82)" style="fill: none;stroke: #8e8ced;stroke-linecap: round;stroke-linejoin: round;stroke-width: 3px"/>
    <path d="M873.27,265.24s38.8-40.23,101.36-35.46S1076,194.32,1076,194.32" transform="translate(-8.43 -12.82)" style="fill: none;stroke: #8e8ced;stroke-linecap: round;stroke-linejoin: round;stroke-width: 3px"/>
    <path d="M843.27,235.24s38.8-40.23,101.36-35.46S1046,164.32,1046,164.32" transform="translate(-8.43 -12.82)" style="fill: none;stroke: #8e8ced;stroke-linecap: round;stroke-linejoin: round;stroke-width: 3px"/>
    <path d="M813.27,205.24s38.8-40.23,101.36-35.46S1016,134.32,1016,134.32" transform="translate(-8.43 -12.82)" style="fill: none;stroke: #8e8ced;stroke-linecap: round;stroke-linejoin: round;stroke-width: 3px"/>
    <path d="M783.27,175.24s38.8-40.23,101.36-35.46S986,104.32,986,104.32" transform="translate(-8.43 -12.82)" style="fill: none;stroke: #8e8ced;stroke-linecap: round;stroke-linejoin: round;stroke-width: 3px"/>
    <path d="M753.27,145.24s38.8-40.23,101.36-35.46S956,74.32,956,74.32" transform="translate(-8.43 -12.82)" style="fill: none;stroke: #8e8ced;stroke-linecap: round;stroke-linejoin: round;stroke-width: 3px"/>
    <path d="M723.27,115.24S762.07,75,824.63,79.78,926,44.32,926,44.32" transform="translate(-8.43 -12.82)" style="fill: none;stroke: #8e8ced;stroke-linecap: round;stroke-linejoin: round;stroke-width: 3px"/>
    <path d="M693.27,85.24S732.07,45,794.63,49.78,896,14.32,896,14.32" transform="translate(-8.43 -12.82)" style="fill: none;stroke: #8e8ced;stroke-linecap: round;stroke-linejoin: round;stroke-width: 3px"/>
  </g>
  <g>
    <path d="M704.63,415.24S743.43,375,806,379.78s101.36-35.46,101.36-35.46" transform="translate(-8.43 -12.82)" style="fill: none;stroke: #8e8ced;stroke-linecap: round;stroke-linejoin: round;stroke-width: 3px"/>
    <path d="M674.63,385.24S713.43,345,776,349.78s101.36-35.46,101.36-35.46" transform="translate(-8.43 -12.82)" style="fill: none;stroke: #8e8ced;stroke-linecap: round;stroke-linejoin: round;stroke-width: 3px"/>
    <path d="M644.63,355.24S683.43,315,746,319.78s101.36-35.46,101.36-35.46" transform="translate(-8.43 -12.82)" style="fill: none;stroke: #8e8ced;stroke-linecap: round;stroke-linejoin: round;stroke-width: 3px"/>
    <path d="M614.63,325.24S653.43,285,716,289.78s101.36-35.46,101.36-35.46" transform="translate(-8.43 -12.82)" style="fill: none;stroke: #8e8ced;stroke-linecap: round;stroke-linejoin: round;stroke-width: 3px"/>
    <path d="M584.63,295.24S623.43,255,686,259.78s101.36-35.46,101.36-35.46" transform="translate(-8.43 -12.82)" style="fill: none;stroke: #8e8ced;stroke-linecap: round;stroke-linejoin: round;stroke-width: 3px"/>
    <path d="M554.63,265.24S593.43,225,656,229.78s101.36-35.46,101.36-35.46" transform="translate(-8.43 -12.82)" style="fill: none;stroke: #8e8ced;stroke-linecap: round;stroke-linejoin: round;stroke-width: 3px"/>
    <path d="M524.63,235.24S563.43,195,626,199.78s101.36-35.46,101.36-35.46" transform="translate(-8.43 -12.82)" style="fill: none;stroke: #8e8ced;stroke-linecap: round;stroke-linejoin: round;stroke-width: 3px"/>
    <path d="M494.63,205.24S533.43,165,596,169.78s101.36-35.46,101.36-35.46" transform="translate(-8.43 -12.82)" style="fill: none;stroke: #8e8ced;stroke-linecap: round;stroke-linejoin: round;stroke-width: 3px"/>
    <path d="M464.63,175.24S503.43,135,566,139.78s101.36-35.46,101.36-35.46" transform="translate(-8.43 -12.82)" style="fill: none;stroke: #8e8ced;stroke-linecap: round;stroke-linejoin: round;stroke-width: 3px"/>
  </g>
  <g>
    <path d="M476.7,505.24S515.5,465,578.06,469.78s101.36-35.46,101.36-35.46" transform="translate(-8.43 -12.82)" style="fill: none;stroke: #8e8ced;stroke-linecap: round;stroke-linejoin: round;stroke-width: 3px"/>
    <path d="M446.7,475.24S485.5,435,548.06,439.78s101.36-35.46,101.36-35.46" transform="translate(-8.43 -12.82)" style="fill: none;stroke: #8e8ced;stroke-linecap: round;stroke-linejoin: round;stroke-width: 3px"/>
    <path d="M416.7,445.24S455.5,405,518.06,409.78s101.36-35.46,101.36-35.46" transform="translate(-8.43 -12.82)" style="fill: none;stroke: #8e8ced;stroke-linecap: round;stroke-linejoin: round;stroke-width: 3px"/>
    <path d="M386.7,415.24S425.5,375,488.06,379.78s101.36-35.46,101.36-35.46" transform="translate(-8.43 -12.82)" style="fill: none;stroke: #8e8ced;stroke-linecap: round;stroke-linejoin: round;stroke-width: 3px"/>
    <path d="M356.7,385.24S395.5,345,458.06,349.78s101.36-35.46,101.36-35.46" transform="translate(-8.43 -12.82)" style="fill: none;stroke: #8e8ced;stroke-linecap: round;stroke-linejoin: round;stroke-width: 3px"/>
    <path d="M326.7,355.24S365.5,315,428.06,319.78s101.36-35.46,101.36-35.46" transform="translate(-8.43 -12.82)" style="fill: none;stroke: #8e8ced;stroke-linecap: round;stroke-linejoin: round;stroke-width: 3px"/>
    <path d="M296.7,325.24S335.5,285,398.06,289.78s101.36-35.46,101.36-35.46" transform="translate(-8.43 -12.82)" style="fill: none;stroke: #8e8ced;stroke-linecap: round;stroke-linejoin: round;stroke-width: 3px"/>
    <path d="M266.7,295.24S305.5,255,368.06,259.78s101.36-35.46,101.36-35.46" transform="translate(-8.43 -12.82)" style="fill: none;stroke: #8e8ced;stroke-linecap: round;stroke-linejoin: round;stroke-width: 3px"/>
    <path d="M236.7,265.24S275.5,225,338.06,229.78s101.36-35.46,101.36-35.46" transform="translate(-8.43 -12.82)" style="fill: none;stroke: #8e8ced;stroke-linecap: round;stroke-linejoin: round;stroke-width: 3px"/>
  </g>
  <g>
    <path d="M249.93,595.24s38.8-40.23,101.36-35.46,101.36-35.46,101.36-35.46" transform="translate(-8.43 -12.82)" style="fill: none;stroke: #8e8ced;stroke-linecap: round;stroke-linejoin: round;stroke-width: 3px"/>
    <path d="M219.93,565.24s38.8-40.23,101.36-35.46,101.36-35.46,101.36-35.46" transform="translate(-8.43 -12.82)" style="fill: none;stroke: #8e8ced;stroke-linecap: round;stroke-linejoin: round;stroke-width: 3px"/>
    <path d="M189.93,535.24s38.8-40.23,101.36-35.46,101.36-35.46,101.36-35.46" transform="translate(-8.43 -12.82)" style="fill: none;stroke: #8e8ced;stroke-linecap: round;stroke-linejoin: round;stroke-width: 3px"/>
    <path d="M159.93,505.24s38.8-40.23,101.36-35.46,101.36-35.46,101.36-35.46" transform="translate(-8.43 -12.82)" style="fill: none;stroke: #8e8ced;stroke-linecap: round;stroke-linejoin: round;stroke-width: 3px"/>
    <path d="M129.93,475.24s38.8-40.23,101.36-35.46,101.36-35.46,101.36-35.46" transform="translate(-8.43 -12.82)" style="fill: none;stroke: #8e8ced;stroke-linecap: round;stroke-linejoin: round;stroke-width: 3px"/>
    <path d="M99.93,445.24s38.8-40.23,101.36-35.46,101.36-35.46,101.36-35.46" transform="translate(-8.43 -12.82)" style="fill: none;stroke: #8e8ced;stroke-linecap: round;stroke-linejoin: round;stroke-width: 3px"/>
    <path d="M69.93,415.24s38.8-40.23,101.36-35.46,101.36-35.46,101.36-35.46" transform="translate(-8.43 -12.82)" style="fill: none;stroke: #8e8ced;stroke-linecap: round;stroke-linejoin: round;stroke-width: 3px"/>
    <path d="M39.93,385.24S78.73,345,141.29,349.78s101.36-35.46,101.36-35.46" transform="translate(-8.43 -12.82)" style="fill: none;stroke: #8e8ced;stroke-linecap: round;stroke-linejoin: round;stroke-width: 3px"/>
    <path d="M9.93,355.24S48.73,315,111.29,319.78s101.36-35.46,101.36-35.46" transform="translate(-8.43 -12.82)" style="fill: none;stroke: #8e8ced;stroke-linecap: round;stroke-linejoin: round;stroke-width: 3px"/>
  </g>
</svg>
