<svg width="82" height="82" viewBox="0 0 82 82" fill="none" xmlns="http://www.w3.org/2000/svg">
<rect x="-0.000213623" y="0.000366211" width="82" height="82" rx="15" fill="#84DCB4"/>
<path d="M60.3781 31.2945C55.2505 20.9351 42.7162 16.7146 32.271 21.8943C22.0157 27.074 17.8376 39.7355 22.9653 50.095C27.1434 58.536 36.2592 63.1402 45.375 61.4136C47.2741 61.03 48.9833 59.8789 50.1228 58.3442C51.2623 56.6176 51.6421 54.3155 51.2623 52.2052C50.3127 47.7929 52.5917 43.3805 56.7698 41.4621C58.6689 40.6947 59.9983 39.16 60.7579 37.2416C61.5176 35.3232 61.3277 33.2129 60.3781 31.2945ZM30.3719 42.6132C29.2324 42.6132 28.4728 41.8458 28.4728 40.6947C28.4728 39.5437 29.2324 38.7763 30.3719 38.7763C31.5114 38.7763 32.271 39.5437 32.271 40.6947C32.271 41.8458 31.3214 42.6132 30.3719 42.6132ZM34.9298 50.2868C34.1701 51.0542 33.0307 51.0542 32.271 50.2868C31.5114 49.5195 31.5114 48.3684 32.271 47.601C33.0307 46.8337 34.1701 46.8337 34.9298 47.601C35.6894 48.3684 35.6894 49.5195 34.9298 50.2868ZM34.9298 33.9803C34.1701 34.7477 33.0307 34.7477 32.271 33.9803C31.5114 33.2129 31.5114 32.0619 32.271 31.2945C33.0307 30.5271 34.1701 30.5271 34.9298 31.2945C35.6894 32.0619 35.6894 33.2129 34.9298 33.9803ZM41.7666 54.1237C40.6272 54.1237 39.8675 53.3563 39.8675 52.2052C39.8675 51.0542 40.6272 50.2868 41.7666 50.2868C42.9061 50.2868 43.6658 51.0542 43.6658 52.2052C43.6658 53.3563 42.7162 54.1237 41.7666 54.1237ZM41.7666 42.6132C40.6272 42.6132 39.8675 41.8458 39.8675 40.6947C39.8675 39.5437 40.6272 38.7763 41.7666 38.7763C42.9061 38.7763 43.6658 39.5437 43.6658 40.6947C43.6658 41.8458 42.7162 42.6132 41.7666 42.6132ZM41.7666 31.1027C40.6272 31.1027 39.8675 30.3353 39.8675 29.1843C39.8675 28.0332 40.6272 27.2658 41.7666 27.2658C42.9061 27.2658 43.6658 28.0332 43.6658 29.1843C43.6658 30.3353 42.7162 31.1027 41.7666 31.1027ZM51.0724 33.9803C50.3127 34.7477 49.1732 34.7477 48.4136 33.9803C47.6539 33.2129 47.6539 32.0619 48.4136 31.2945C49.1732 30.5271 50.3127 30.5271 51.0724 31.2945C51.832 32.0619 51.832 33.2129 51.0724 33.9803Z" fill="white"/>
</svg>
