<svg width="90" height="90" viewBox="0 0 90 90" fill="none" xmlns="http://www.w3.org/2000/svg">
<rect x="3.99979" y="4.00037" width="82" height="82" rx="15" fill="#84DCB4"/>
<path d="M66.2684 34.3479C60.6405 22.9778 46.8834 18.3455 35.4192 24.0306C24.1634 29.7156 19.5777 43.6125 25.2056 54.9826C29.7913 64.2471 39.7965 69.3005 49.8016 67.4055C51.886 66.9844 53.762 65.721 55.0126 64.0366C56.2633 62.1415 56.6802 59.6149 56.2633 57.2987C55.2211 52.4559 57.7224 47.6131 62.3081 45.5075C64.3925 44.6652 65.8516 42.9808 66.6853 40.8752C67.5191 38.7696 67.3106 36.4535 66.2684 34.3479ZM33.3348 46.7708C32.0841 46.7708 31.2504 45.9286 31.2504 44.6652C31.2504 43.4019 32.0841 42.5597 33.3348 42.5597C34.5854 42.5597 35.4192 43.4019 35.4192 44.6652C35.4192 45.9286 34.377 46.7708 33.3348 46.7708ZM38.3374 55.1931C37.5036 56.0354 36.253 56.0354 35.4192 55.1931C34.5854 54.3509 34.5854 53.0876 35.4192 52.2453C36.253 51.4031 37.5036 51.4031 38.3374 52.2453C39.1711 53.0876 39.1711 54.3509 38.3374 55.1931ZM38.3374 37.2957C37.5036 38.138 36.253 38.138 35.4192 37.2957C34.5854 36.4535 34.5854 35.1901 35.4192 34.3479C36.253 33.5057 37.5036 33.5057 38.3374 34.3479C39.1711 35.1901 39.1711 36.4535 38.3374 37.2957ZM45.8412 59.4043C44.5906 59.4043 43.7568 58.5621 43.7568 57.2987C43.7568 56.0354 44.5906 55.1931 45.8412 55.1931C47.0919 55.1931 47.9256 56.0354 47.9256 57.2987C47.9256 58.5621 46.8834 59.4043 45.8412 59.4043ZM45.8412 46.7708C44.5906 46.7708 43.7568 45.9286 43.7568 44.6652C43.7568 43.4019 44.5906 42.5597 45.8412 42.5597C47.0919 42.5597 47.9256 43.4019 47.9256 44.6652C47.9256 45.9286 46.8834 46.7708 45.8412 46.7708ZM45.8412 34.1374C44.5906 34.1374 43.7568 33.2951 43.7568 32.0318C43.7568 30.7684 44.5906 29.9262 45.8412 29.9262C47.0919 29.9262 47.9256 30.7684 47.9256 32.0318C47.9256 33.2951 46.8834 34.1374 45.8412 34.1374ZM56.0548 37.2957C55.2211 38.138 53.9704 38.138 53.1367 37.2957C52.3029 36.4535 52.3029 35.1901 53.1367 34.3479C53.9704 33.5057 55.2211 33.5057 56.0548 34.3479C56.8886 35.1901 56.8886 36.4535 56.0548 37.2957Z" fill="white"/>
</svg>
