<svg width="38" height="38" viewBox="0 0 38 38" fill="none" xmlns="http://www.w3.org/2000/svg">
<path d="M19 3.55737C15.2403 3.55753 11.6034 4.89547 8.73995 7.3318C5.87649 9.76813 3.97338 13.1439 3.37113 16.855C2.76888 20.5661 3.5068 24.3704 5.45284 27.5872C7.39889 30.8041 10.4261 33.2235 13.9927 34.4126C14.7844 34.5511 15.0813 34.0761 15.0813 33.6605C15.0813 33.2845 15.0615 32.0376 15.0615 30.7115C11.0833 31.4438 10.0542 29.7418 9.7375 28.8512C9.38612 27.985 8.82911 27.2174 8.11459 26.6147C7.56042 26.3178 6.76875 25.5855 8.09478 25.5657C8.60111 25.6207 9.08673 25.7969 9.5105 26.0794C9.93427 26.3619 10.2837 26.7424 10.5292 27.1886C10.7457 27.5776 11.0369 27.9201 11.3861 28.1964C11.7352 28.4727 12.1354 28.6774 12.5638 28.7987C12.9922 28.9201 13.4403 28.9557 13.8825 28.9035C14.3247 28.8514 14.7522 28.7125 15.1406 28.4949C15.2091 27.6899 15.5679 26.9373 16.15 26.3772C12.6271 25.9814 8.94584 24.6157 8.94584 18.5595C8.92359 16.9859 9.50425 15.4634 10.5688 14.3043C10.0847 12.9366 10.1413 11.4357 10.7271 10.1085C10.7271 10.1085 12.0531 9.69282 15.0813 11.7314C17.672 11.0188 20.4071 11.0188 22.9979 11.7314C26.026 9.67304 27.3521 10.1085 27.3521 10.1085C27.9379 11.4357 27.9946 12.9367 27.5104 14.3043C28.5781 15.4614 29.1593 16.9852 29.1333 18.5595C29.1333 24.6355 25.4323 25.9814 21.9094 26.3772C22.2872 26.7602 22.5783 27.22 22.7627 27.7254C22.9471 28.2309 23.0206 28.77 22.9781 29.3064C22.9781 31.4241 22.9583 33.1261 22.9583 33.6605C22.9583 34.0762 23.2552 34.571 24.0469 34.4126C27.6073 33.2138 30.6257 30.7887 32.5635 27.5703C34.5012 24.3518 35.2322 20.5494 34.6257 16.8419C34.0193 13.1344 32.115 9.76304 29.2528 7.32968C26.3906 4.89632 22.7568 3.55933 19 3.55737Z" fill="black" fill-opacity="0.26"/>
</svg>
