<svg width="38" height="38" viewBox="0 0 38 38" fill="none" xmlns="http://www.w3.org/2000/svg">
<path d="M32.4108 3.16673H5.58917C5.28767 3.16254 4.9883 3.21778 4.70815 3.32931C4.428 3.44083 4.17257 3.60645 3.95644 3.8167C3.7403 4.02696 3.5677 4.27773 3.44849 4.55469C3.32929 4.83166 3.2658 5.12939 3.26167 5.43089V32.5692C3.2658 32.8707 3.32929 33.1685 3.44849 33.4454C3.5677 33.7224 3.7403 33.9732 3.95644 34.1834C4.17257 34.3937 4.428 34.5593 4.70815 34.6708C4.9883 34.7823 5.28767 34.8376 5.58917 34.8334H32.4108C32.7123 34.8376 33.0117 34.7823 33.2919 34.6708C33.572 34.5593 33.8274 34.3937 34.0436 34.1834C34.2597 33.9732 34.4323 33.7224 34.5515 33.4454C34.6707 33.1685 34.7342 32.8707 34.7383 32.5692V5.43089C34.7342 5.12939 34.6707 4.83166 34.5515 4.55469C34.4323 4.27773 34.2597 4.02696 34.0436 3.8167C33.8274 3.60645 33.572 3.44083 33.2919 3.32931C33.0117 3.21778 32.7123 3.16254 32.4108 3.16673ZM12.8092 29.6717H8.05917V15.4217H12.8092V29.6717ZM10.4342 13.4267C9.77909 13.4267 9.15083 13.1665 8.68762 12.7033C8.2244 12.2401 7.96417 11.6118 7.96417 10.9567C7.96417 10.3016 8.2244 9.67339 8.68762 9.21017C9.15083 8.74696 9.77909 8.48673 10.4342 8.48673C10.782 8.44728 11.1343 8.48174 11.4679 8.58787C11.8015 8.694 12.1089 8.8694 12.37 9.10258C12.6312 9.33576 12.8401 9.62147 12.9831 9.94099C13.1262 10.2605 13.2001 10.6066 13.2001 10.9567C13.2001 11.3068 13.1262 11.6529 12.9831 11.9725C12.8401 12.292 12.6312 12.5777 12.37 12.8109C12.1089 13.0441 11.8015 13.2194 11.4679 13.3256C11.1343 13.4317 10.782 13.4662 10.4342 13.4267ZM29.9408 29.6717H25.1908V22.0242C25.1908 20.1084 24.51 18.8576 22.7842 18.8576C22.2501 18.8615 21.73 19.029 21.294 19.3376C20.858 19.6462 20.5271 20.081 20.3458 20.5834C20.2219 20.9555 20.1682 21.3475 20.1875 21.7392V29.6559H15.4375C15.4375 29.6559 15.4375 16.7042 15.4375 15.4059H20.1875V17.4167C20.619 16.668 21.2466 16.0511 22.0027 15.6326C22.7588 15.2141 23.6147 15.0098 24.4783 15.0417C27.645 15.0417 29.9408 17.0842 29.9408 21.4701V29.6717Z" fill="black" fill-opacity="0.26"/>
</svg>
